<svg width="12" height="12" viewBox="0 0 12 12" fill="none" xmlns="http://www.w3.org/2000/svg">
  <path d="M8.25029 7.6875C7.93974 7.6875 7.68779 7.93922 7.68779 8.25C7.68779 8.56055 7.93974 8.8125 8.25029 8.8125C8.56083 8.8125 8.81279 8.56055 8.81279 8.25C8.81279 7.93922 8.56083 7.6875 8.25029 7.6875ZM8.06279 3C8.06279 2.68922 7.81083 2.4375 7.50029 2.4375C7.18974 2.4375 6.93779 2.68922 6.93779 3C6.93779 3.31055 7.18974 3.5625 7.50029 3.5625C7.81083 3.5625 8.06279 3.31055 8.06279 3ZM4.31279 4.5C4.31279 4.18922 4.06084 3.9375 3.75029 3.9375C3.43974 3.9375 3.18779 4.18922 3.18779 4.5C3.18779 4.81055 3.43974 5.0625 3.75029 5.0625C4.06084 5.0625 4.31279 4.81055 4.31279 4.5ZM4.50029 7.6875C4.18974 7.6875 3.93779 7.93922 3.93779 8.25C3.93779 8.56055 4.18974 8.8125 4.50029 8.8125C4.81084 8.8125 5.06279 8.56055 5.06279 8.25C5.06279 7.93922 4.81084 7.6875 4.50029 7.6875ZM6.75029 5.4375C6.43974 5.4375 6.18779 5.68922 6.18779 6C6.18779 6.31055 6.43974 6.5625 6.75029 6.5625C7.06083 6.5625 7.31279 6.31055 7.31279 6C7.31279 5.68922 7.06083 5.4375 6.75029 5.4375ZM11.9621 5.97164L11.679 4.1843C11.5764 3.53672 11.2716 2.93822 10.808 2.47453L9.52458 1.19133C9.06216 0.729141 8.46568 0.424922 7.82044 0.322969L6.02279 0.0382031C5.86224 0.0126563 5.70076 0 5.53951 0C5.05388 0 4.57271 0.114375 4.13584 0.337031L2.51584 1.16227C1.93264 1.45949 1.4585 1.9337 1.16138 2.51695L0.338726 4.13109C0.0407843 4.71585 -0.0643965 5.37992 0.0382572 6.02813L0.321382 7.8157C0.423918 8.46328 0.72879 9.06178 1.19232 9.52547L2.47576 10.8087C2.93791 11.2707 3.53443 11.5747 4.1799 11.677L5.97755 11.9616C6.13834 11.9871 6.29982 11.9995 6.46107 11.9995C6.94669 11.9995 7.42787 11.8852 7.86451 11.6625L9.48451 10.8373C10.0677 10.54 10.5418 10.0658 10.839 9.48258L11.6616 7.86844C11.9596 7.28377 12.0648 6.61977 11.9621 5.97164ZM10.9934 7.52813L10.1708 9.1425C9.94388 9.58781 9.5888 9.94289 9.14419 10.1695L7.52419 10.9948C7.19654 11.1619 6.8288 11.25 6.46107 11.25C6.33896 11.25 6.21568 11.2404 6.09474 11.2212L4.29732 10.9366C3.80537 10.8586 3.35888 10.631 3.00615 10.2785L1.72294 8.99508C1.36927 8.64141 1.14076 8.19305 1.06248 7.69828L0.779351 5.91094C0.700835 5.41594 0.77982 4.91813 1.00716 4.47188L1.82982 2.8575C2.05669 2.41219 2.41177 2.05711 2.85638 1.83047L4.47638 1.00523C4.80427 0.838359 5.17177 0.75 5.53951 0.75C5.66162 0.75 5.7849 0.759609 5.9056 0.778828L7.70326 1.06359C8.19521 1.14141 8.64169 1.36898 8.99419 1.72172L10.2776 3.00492C10.6313 3.35859 10.8598 3.80695 10.9381 4.30172L11.2212 6.08906C11.2997 6.58406 11.2208 7.08188 10.9934 7.52813Z" fill="#5C2CEC"/>
</svg>
