<svg width="12" height="12" viewBox="0 0 12 12" fill="none" xmlns="http://www.w3.org/2000/svg">
  <path d="M8.24919 7.6875C7.93864 7.6875 7.68669 7.93922 7.68669 8.25C7.68669 8.56055 7.93864 8.8125 8.24919 8.8125C8.55974 8.8125 8.81169 8.56055 8.81169 8.25C8.81169 7.93922 8.55974 7.6875 8.24919 7.6875ZM4.31169 4.5C4.31169 4.18922 4.05974 3.9375 3.74919 3.9375C3.43864 3.9375 3.18669 4.18922 3.18669 4.5C3.18669 4.81055 3.43864 5.0625 3.74919 5.0625C4.05974 5.0625 4.31169 4.81055 4.31169 4.5ZM4.49919 7.6875C4.18864 7.6875 3.93669 7.93922 3.93669 8.25C3.93669 8.56055 4.18864 8.8125 4.49919 8.8125C4.80974 8.8125 5.06169 8.56055 5.06169 8.25C5.06169 7.93922 4.80974 7.6875 4.49919 7.6875ZM6.74919 5.4375C6.43864 5.4375 6.18669 5.68922 6.18669 6C6.18669 6.31055 6.43864 6.5625 6.74919 6.5625C7.05974 6.5625 7.31169 6.31055 7.31169 6C7.31169 5.68922 7.05974 5.4375 6.74919 5.4375ZM11.9645 5.99578C10.3246 5.97586 9.00036 4.64367 9.00036 2.99906C7.35575 2.99906 6.0238 1.67508 6.00364 0.0353906C5.84849 0.0117188 5.69216 0 5.53653 0C5.05185 0 4.57138 0.113672 4.1352 0.335859L2.51497 1.16133C1.93171 1.45857 1.45756 1.93288 1.16052 2.51625L0.337861 4.13063C0.0399364 4.71547 -0.0652422 5.37961 0.0373922 6.02789L0.320517 7.8157C0.423102 8.46333 0.727963 9.06189 1.19145 9.5257L2.47513 10.8091C2.9372 11.2714 3.53375 11.5754 4.17927 11.6777L5.97716 11.9623C6.13794 11.9878 6.29966 12.0002 6.46091 12.0002C6.94653 12.0002 7.4277 11.8859 7.86458 11.6632L9.48481 10.8377C10.0681 10.5405 10.5422 10.0662 10.8393 9.48281L11.6619 7.86844C11.9563 7.29117 12.0606 6.63633 11.9645 5.99578ZM10.9937 7.52766L10.1711 9.14227C9.94419 9.58758 9.58911 9.94266 9.14427 10.1693L7.52403 10.9948C7.19638 11.1616 6.82864 11.25 6.46091 11.25C6.3388 11.25 6.21552 11.2404 6.09458 11.2212L4.29692 10.9366C3.80474 10.8586 3.35825 10.631 3.00575 10.2785L1.72208 8.99508C1.36817 8.64141 1.13989 8.19281 1.06161 7.69828L0.778486 5.9107C0.69997 5.4157 0.778955 4.91789 1.0063 4.47141L1.82895 2.85703C2.05583 2.41172 2.41091 2.05664 2.85575 1.83L4.47575 1.0043C4.7413 0.869062 5.03356 0.785625 5.33145 0.759141C5.63966 2.23922 6.8277 3.40641 8.31388 3.68555C8.59302 5.17195 9.76021 6.36 11.2405 6.66797C11.2147 6.96633 11.1318 7.25719 10.9937 7.52766Z" fill="#FE3E58"/>
</svg>
